<svg xmlns="http://www.w3.org/2000/svg" width="29.821990705170947" height="29.4921481026189" style=""><rect id="backgroundrect" width="100%" height="100%" x="0" y="0" fill="none" stroke="none" class="" style=""/>
 <defs>
  <style>.cls-1{fill:#0075c9;}.cls-2,.cls-3,.cls-4{fill:#fff;}.cls-3{font-size:9.87px;font-family:FontAwesome5Free-Solid, Font Awesome 5 Free;}.cls-4{font-size:16px;font-family:Spartan-Medium, Spartan;}.cls-5{letter-spacing:-0.01em;}.cls-6{letter-spacing:-0.01em;}.cls-7{letter-spacing:-0.02em;}.cls-8{letter-spacing:-0.02em;}.cls-9{letter-spacing:-0.02em;}.cls-10{letter-spacing:0em;}.cls-11{letter-spacing:-0.01em;}.cls-12{letter-spacing:-0.01em;}.cls-13{letter-spacing:-0.01em;}.cls-14{letter-spacing:-0.02em;}.cls-15{letter-spacing:-0.02em;}</style>
 </defs>
 <title>nuevo registroRecurso 17</title>
 <g style="">
  <title>background</title>
  <rect fill="none" id="canvas_background" height="484" width="641" y="-1" x="-1"/>
 </g>
 <g style="" class="currentLayer">
  <title>Layer 1</title>
  
   
    
    
    <path stroke="null" id="svg_4" d="m24.747434303760528,10.761702113513948 a9.33,9.33 0 0 0 2.52,-6 l0,-1.26 l-1.06,0.6100000000000046 c-1.45,0.8300000000000006 -5.42,2.9 -7.25,3.11 a3.35,3.35 0 0 0 -2.27,-0.8800000000000077 l-3.1,0 a3.35,3.35 0 0 0 -2.27,0.8800000000000077 c-1.83,-0.21000000000000021 -5.8,-2.29 -7.25,-3.11 l-1.06,-0.6100000000000046 l0,1.26 a9.33,9.33 0 0 0 2.52,6 a7.36,7.36 0 0 0 -1.48,1.49 l-0.2900000000000003,0.4100000000000003 l0.2900000000000003,0.4100000000000003 c0.07,0.1 1.7200000000000002,2.4 3.89,2.4 a3.27,3.27 0 0 0 0.7400000000000077,-0.09000000000000154 a9.3,9.3 0 0 0 0.9500000000000006,3.51 l0.07,0.14 a7.26,7.26 0 0 1 0.54,4.43 l-0.1,0.5 a3.17,3.17 0 0 0 3.1,3.8 l3.79,0 a3.17,3.17 0 0 0 3.11,-3.7600000000000002 l-0.1,-0.5 a7.26,7.26 0 0 1 0.54,-4.43 l0.07,-0.14 a9.3,9.3 0 0 0 0.9500000000000006,-3.51 a3.27,3.27 0 0 0 0.7400000000000077,0.09000000000000154 c2.17,0 3.8200000000000003,-2.3 3.89,-2.4 l0.2900000000000003,-0.4100000000000003 l-0.2900000000000003,-0.4100000000000003 a7.37,7.37 0 0 0 -1.48,-1.53 zm-1.31,-0.7100000000000006 a3.37,3.37 0 0 0 -1.1,-0.19000000000000203 a3.6900000000000004,3.6900000000000004 0 0 0 -1.81,0.51 l0,0 l-0.46,-0.8400000000000006 a3.34,3.34 0 0 0 -0.22000000000000094,-1 a29.55,29.55 0 0 0 5.85,-2.48 a7.46,7.46 0 0 1 -2.26,4.03 l0,-0.03000000000000039 zm-18.84,-4.06 a29.54,29.54 0 0 0 5.85,2.48 a3.34,3.34 0 0 0 -0.22000000000000094,1 l-0.46,0.8400000000000006 l0,0 a3.6900000000000004,3.6900000000000004 0 0 0 -1.81,-0.51 a3.37,3.37 0 0 0 -1.1,0.19000000000000203 a7.46,7.46 0 0 1 -2.26,-3.9699999999999998 l0,-0.03000000000000039 zm0.9500000000000006,6.68 a3.7,3.7 0 0 1 2.4,-1.3900000000000001 a2.39,2.39 0 0 1 1.24,0.4 a9.31,9.31 0 0 0 -0.4800000000000003,2.21 a2.06,2.06 0 0 1 -0.7600000000000081,0.16000000000000208 a3.73,3.73 0 0 1 -2.4,-1.3800000000000001 zm4.59,1.09 l0.28,0.21000000000000021 a4.32,4.32 0 0 1 1.46,4.92 l-0.3600000000000003,1 a8.43,8.43 0 0 0 -0.54,-1.48 l-0.08000000000000022,-0.16000000000000208 a7.8900000000000015,7.8900000000000015 0 0 1 -0.7600000000000081,-4.49 zm8.25,11.94 a1.7400000000000002,1.7400000000000002 0 0 1 -1.34,0.6300000000000077 l-3.79,0 a1.7400000000000002,1.7400000000000002 0 0 1 -1.71,-2.07 l0.09000000000000154,-0.45 l1.6,-4.4 a5.74,5.74 0 0 0 -1.94,-6.54 l-0.78,-0.5900000000000006 a7.86,7.86 0 0 1 0.54,-1.25 l0.6200000000000077,-1.15 l0,-0.18000000000000024 a2,2 0 0 1 1.9100000000000001,-1.94 l3.1,0 a2,2 0 0 1 1.94,1.94 l0,0.18000000000000024 l0.6200000000000077,1.15 a7.86,7.86 0 0 1 0.54,1.25 l-0.78,0.5900000000000006 a5.74,5.74 0 0 0 -1.94,6.54 l1.6,4.4 l0.09000000000000154,0.45 a1.7400000000000002,1.7400000000000002 0 0 1 -0.3700000000000018,1.44 zm1,-7.41 l-0.08000000000000022,0.16000000000000208 a8.43,8.43 0 0 0 -0.54,1.48 l-0.3600000000000003,-1 a4.32,4.32 0 0 1 1.46,-4.92 l0.28,-0.21000000000000021 a7.8900000000000015,7.8900000000000015 0 0 1 -0.7600000000000081,4.49 zm3,-4.21 a2.06,2.06 0 0 1 -0.7600000000000081,-0.16000000000000208 a9.31,9.31 0 0 0 -0.4800000000000003,-2.21 a2.4,2.4 0 0 1 1.24,-0.4 a3.73,3.73 0 0 1 2.4,1.3800000000000001 a3.7,3.7 0 0 1 -2.4,1.3900000000000001 z" class="cls-2"/>
    
   
  
 </g>
</svg>