<svg xmlns="http://www.w3.org/2000/svg" viewBox="0 0 20.67 23.67"><defs><style>.cls-1{fill:#fff;}</style></defs><title>menuRecurso 6</title><g id="Capa_2" data-name="Capa 2"><g id="Capa_1-2" data-name="Capa 1"><path class="cls-1" d="M20.67,6.32a.67.67,0,0,0-.38-.67Q15.49,2.9,10.7.12a.65.65,0,0,0-.76,0Q5.16,2.91.36,5.65A.62.62,0,0,0,0,6.28C0,8.13,0,10,0,11.82s0,3.69,0,5.53A.66.66,0,0,0,.37,18q4.8,2.75,9.58,5.52a.66.66,0,0,0,.77,0q4.76-2.77,9.54-5.5a.71.71,0,0,0,.41-.71Q20.65,11.82,20.67,6.32Zm-2.8,5.55c0,1.3,0,2.59,0,3.89a.63.63,0,0,1-.35.64C15.25,17.69,13,19,10.69,20.3a.85.85,0,0,1-.71,0q-3.45-2-6.87-4a.78.78,0,0,1-.31-.58c0-2.61,0-5.22,0-7.83a.7.7,0,0,1,.42-.7Q6.55,5.33,9.88,3.39a.79.79,0,0,1,.92,0q3.33,1.95,6.68,3.85a.7.7,0,0,1,.39.72C17.86,9.27,17.87,10.57,17.87,11.86ZM16.1,8.07C14.28,7,12.47,6,10.65,4.94a.74.74,0,0,0-.61,0C8.2,6,6.38,7,4.55,8.08a.67.67,0,0,0-.37.68q0,3.09,0,6.17a.67.67,0,0,0,.39.67c1.82,1,3.62,2.1,5.44,3.13a.74.74,0,0,0,.62,0c1.84-1,3.66-2.11,5.49-3.15a.66.66,0,0,0,.37-.68c0-1,0-2.06,0-3.09s0-2.06,0-3.09A.66.66,0,0,0,16.1,8.07Zm-5.76,7.07a3.3,3.3,0,1,1,3.3-3.3A3.3,3.3,0,0,1,10.33,15.14Zm0-4.08a.78.78,0,1,0,.78.78A.78.78,0,0,0,10.33,11.05Z"/></g></g></svg>