<?xml version="1.0" standalone="no"?>
<!DOCTYPE svg PUBLIC "-//W3C//DTD SVG 20010904//EN"
 "http://www.w3.org/TR/2001/REC-SVG-20010904/DTD/svg10.dtd">
<svg version="1.0" xmlns="http://www.w3.org/2000/svg"
 width="512.000000pt" height="512.000000pt" viewBox="0 0 512.000000 512.000000"
 preserveAspectRatio="xMidYMid meet">
<metadata>
Created by potrace 1.16, written by Peter Selinger 2001-2019
</metadata>
<g transform="translate(0.000000,512.000000) scale(0.100000,-0.100000)"
fill="#ffffff" stroke="none">
<path d="M1615 5108 c-46 -17 -128 -74 -151 -105 -49 -66 -67 -117 -72 -198
-3 -65 0 -91 18 -139 39 -102 132 -184 237 -207 l54 -12 -6 -56 c-11 -93 -54
-306 -81 -399 -35 -122 -90 -269 -173 -465 -87 -205 -131 -332 -161 -457 -55
-235 -53 -196 -57 -1450 -5 -1296 -7 -1240 62 -1365 61 -109 152 -185 282
-232 l64 -23 929 0 929 0 64 23 c130 47 221 123 282 232 69 125 67 70 62 1365
-4 1266 -2 1224 -61 1465 -31 128 -70 236 -157 441 -89 210 -135 334 -170 456
-29 102 -72 312 -84 409 l-6 56 54 12 c105 23 198 105 237 207 18 48 21 74 18
139 -7 129 -71 227 -184 285 l-49 25 -925 2 c-637 1 -934 -2 -955 -9z m1459
-685 c3 -16 12 -79 21 -140 41 -308 112 -545 259 -866 38 -84 110 -277 104
-281 -20 -15 -140 -83 -203 -114 -204 -102 -378 -125 -556 -73 -88 26 -130 45
-234 106 -250 146 -394 189 -636 190 l-136 0 43 100 c23 55 67 156 97 225 88
201 158 462 192 713 9 61 18 124 21 140 l6 27 508 0 508 0 6 -27z"/>
</g>
</svg>
