<?xml version="1.0" standalone="no"?>
<!DOCTYPE svg PUBLIC "-//W3C//DTD SVG 20010904//EN"
 "http://www.w3.org/TR/2001/REC-SVG-20010904/DTD/svg10.dtd">
<svg version="1.0" xmlns="http://www.w3.org/2000/svg"
 width="512.000000pt" height="512.000000pt" viewBox="0 0 512.000000 512.000000"
 preserveAspectRatio="xMidYMid meet">
<metadata>
Created by potrace 1.16, written by Peter Selinger 2001-2019
</metadata>
<g transform="translate(0.000000,512.000000) scale(0.100000,-0.100000)"
fill="#ffffff" stroke="none">
<path d="M2204 5101 c-9 -10 -45 -85 -80 -167 -35 -82 -70 -153 -77 -160 -11
-10 -124 -44 -146 -44 -5 0 -73 47 -151 105 -105 77 -150 105 -171 105 -20 0
-116 -50 -292 -151 -144 -83 -272 -161 -284 -172 -28 -25 -28 -48 -4 -247 l18
-145 -59 -61 -59 -60 -147 17 c-201 24 -224 24 -249 -3 -11 -13 -89 -141 -172
-285 -102 -178 -151 -272 -151 -292 0 -22 24 -61 88 -148 135 -181 126 -159
106 -239 -9 -38 -22 -75 -28 -81 -6 -7 -78 -42 -160 -77 -82 -35 -157 -71
-167 -80 -18 -15 -19 -35 -19 -356 0 -321 1 -341 19 -356 10 -9 85 -45 167
-80 82 -35 154 -70 160 -77 6 -6 19 -43 28 -81 20 -80 29 -58 -106 -239 -64
-87 -88 -126 -88 -148 0 -20 49 -114 151 -292 83 -144 161 -272 172 -284 25
-28 48 -28 249 -4 l147 17 59 -60 59 -61 -18 -145 c-24 -199 -24 -222 3 -247
13 -11 141 -89 285 -172 176 -101 272 -151 292 -151 21 0 66 28 171 105 78 58
146 105 151 105 22 0 135 -34 146 -44 7 -7 42 -78 77 -160 35 -82 71 -157 80
-167 15 -18 35 -19 356 -19 319 0 341 1 356 18 9 11 45 86 80 168 36 82 70
154 77 160 7 6 43 19 81 28 80 20 58 29 239 -106 87 -65 126 -88 148 -88 21 0
114 48 292 151 144 83 272 160 285 172 27 25 27 48 3 247 l-18 145 59 61 59
60 147 -17 c201 -24 224 -24 249 4 11 12 89 140 172 284 103 179 151 271 151
292 0 22 -23 61 -88 148 -135 181 -126 159 -106 239 9 38 22 74 28 81 6 7 78
41 160 77 82 35 157 71 168 80 17 15 18 37 18 356 0 319 -1 341 -18 356 -11 9
-86 45 -168 80 -82 36 -154 70 -160 77 -6 7 -19 43 -28 81 -20 80 -29 58 106
239 65 87 88 126 88 148 0 21 -48 114 -151 292 -83 144 -160 272 -172 285 -25
27 -48 27 -247 3 l-145 -18 -61 59 -60 59 17 147 c24 201 24 224 -3 249 -13
12 -141 89 -285 172 -178 103 -271 151 -292 151 -22 0 -61 -23 -148 -88 -181
-135 -159 -126 -239 -106 -38 9 -74 22 -81 28 -7 6 -41 78 -77 160 -35 82 -71
157 -80 168 -15 17 -37 18 -356 18 -321 0 -341 -1 -356 -19z m670 -292 c43
-99 77 -166 90 -174 24 -15 212 -66 268 -73 35 -4 48 4 174 97 75 56 142 101
148 99 7 -2 104 -56 217 -121 l205 -119 -20 -179 -20 -180 112 -111 111 -112
180 20 179 20 119 -205 c65 -113 119 -210 121 -217 2 -6 -43 -73 -99 -148 -93
-126 -101 -139 -97 -174 7 -56 58 -244 73 -268 8 -13 75 -47 174 -90 l161 -69
0 -245 0 -245 -161 -69 c-99 -43 -166 -77 -174 -90 -15 -24 -66 -212 -73 -268
-4 -35 4 -48 97 -174 56 -75 101 -142 99 -148 -2 -7 -56 -104 -121 -217 l-119
-205 -179 20 -180 20 -111 -112 -112 -111 20 -180 20 -179 -205 -119 c-113
-65 -210 -119 -217 -121 -6 -2 -73 43 -148 99 -126 93 -139 101 -174 97 -56
-7 -244 -58 -268 -73 -13 -8 -47 -75 -90 -174 l-69 -161 -245 0 -245 0 -69
161 c-43 99 -77 166 -90 174 -24 15 -212 66 -268 73 -35 4 -48 -4 -174 -97
-75 -56 -142 -101 -148 -99 -7 2 -104 56 -217 121 l-205 119 20 179 20 180
-112 111 -111 112 -163 -18 c-90 -9 -170 -19 -178 -22 -11 -3 -49 54 -135 203
-66 114 -121 213 -123 219 -2 6 43 73 99 148 93 126 101 139 97 174 -7 56 -58
244 -73 268 -8 13 -75 47 -174 90 l-161 69 0 245 0 245 161 69 c99 43 166 77
174 90 15 24 66 212 73 268 4 35 -4 48 -97 174 -56 75 -101 142 -99 148 2 7
57 105 123 219 87 151 123 206 135 203 8 -3 88 -13 178 -22 l163 -18 111 112
112 111 -20 180 -20 179 205 119 c113 65 210 119 217 121 6 2 73 -43 148 -99
126 -93 139 -101 174 -97 56 7 244 58 268 73 13 8 47 75 90 174 l69 161 245 0
245 0 69 -161z"/>
<path d="M2277 4504 c-260 -40 -500 -124 -713 -249 -110 -65 -289 -197 -298
-221 -12 -31 -6 -74 14 -94 34 -34 87 -27 145 21 88 73 237 166 355 223 419
201 896 233 1340 90 136 -44 360 -156 480 -241 123 -87 346 -310 433 -433 85
-121 197 -344 242 -482 65 -203 80 -305 80 -558 0 -253 -15 -355 -80 -558 -45
-138 -157 -361 -243 -482 -87 -123 -309 -345 -432 -432 -120 -85 -344 -198
-480 -242 -289 -93 -619 -114 -906 -56 -238 48 -501 161 -694 298 -124 88
-347 310 -433 432 -135 192 -246 449 -298 695 -21 97 -24 136 -24 340 0 200 3
245 23 343 58 289 197 586 371 797 48 58 55 111 21 145 -34 34 -86 27 -125
-16 -83 -91 -214 -296 -277 -434 -122 -267 -178 -527 -178 -830 0 -329 64
-603 206 -885 103 -203 221 -362 395 -530 295 -286 671 -470 1080 -530 140
-20 418 -20 558 1 355 51 692 199 965 423 153 126 326 323 426 486 197 321
290 653 290 1035 0 328 -64 604 -206 885 -103 203 -222 362 -395 530 -302 291
-664 469 -1080 529 -132 20 -438 20 -562 0z"/>
<path d="M2355 4214 c-199 -30 -379 -85 -540 -166 -457 -230 -778 -647 -887
-1154 -20 -96 -23 -136 -23 -334 0 -198 3 -238 23 -334 141 -659 632 -1149
1298 -1298 86 -19 129 -22 334 -22 206 0 247 2 333 22 668 149 1150 631 1299
1299 20 86 22 127 22 333 0 206 -2 247 -22 333 -149 666 -632 1151 -1294 1298
-74 17 -136 21 -303 24 -115 2 -223 1 -240 -1z m341 -158 c238 -15 520 -119
737 -273 105 -74 276 -245 350 -350 118 -166 210 -378 254 -583 26 -121 26
-459 0 -580 -44 -205 -136 -417 -254 -583 -77 -109 -246 -277 -358 -355 -49
-35 -144 -91 -210 -123 l-120 -59 -3 237 -2 237 150 151 150 151 0 212 c0 185
2 212 15 212 27 0 110 92 123 136 27 91 8 169 -58 234 -46 47 -99 70 -160 70
-61 0 -114 -23 -160 -70 -95 -94 -94 -226 2 -322 26 -27 54 -48 63 -48 13 0
15 -24 15 -177 l0 -177 -150 -151 -150 -151 0 -296 0 -296 -47 -11 c-68 -15
-173 -31 -210 -31 l-33 0 0 1060 c0 1001 1 1061 18 1067 70 26 122 105 129
196 4 54 1 69 -24 117 -18 34 -45 66 -72 85 -40 28 -49 30 -131 30 -82 0 -91
-2 -131 -30 -27 -19 -54 -51 -72 -85 -25 -48 -28 -63 -24 -117 7 -91 59 -170
130 -196 16 -6 17 -66 17 -1067 l0 -1060 -32 0 c-38 0 -143 16 -210 31 l-48
11 0 296 0 296 -150 151 -150 151 0 177 c0 153 2 177 15 177 9 0 37 21 63 48
68 67 87 144 60 236 -16 54 -90 128 -144 144 -91 27 -169 8 -234 -58 -66 -65
-85 -143 -58 -234 13 -44 96 -136 123 -136 13 0 15 -27 15 -212 l0 -212 150
-151 150 -151 -2 -237 -3 -237 -126 63 c-69 34 -163 89 -210 122 -107 76 -277
247 -352 352 -118 166 -210 378 -254 583 -26 121 -26 459 0 580 44 205 136
417 254 583 74 105 245 276 350 350 166 118 381 212 578 252 81 17 266 33 320
28 17 -1 66 -4 111 -7z"/>
</g>
</svg>
