<svg xmlns="http://www.w3.org/2000/svg" viewBox="0 0 19.64 19.64"><defs><style>.cls-1{fill:#fff;}</style></defs><title>menuRecurso 9</title><g id="Capa_2" data-name="Capa 2"><g id="Capa_1-2" data-name="Capa 1"><path class="cls-1" d="M11.89,17.3H7.76L6.61,16.15H0V17.3a2.34,2.34,0,0,0,2.3,2.34h15a2.34,2.34,0,0,0,2.3-2.34V16.15H13Z"/><path class="cls-1" d="M1.15,4.64V15H7.08l1.15,1.15h3.17L12.56,15h5.93V4.64H16.77v8.63H2.88V4.64Z"/><path class="cls-1" d="M9.82,4.54a4.74,4.74,0,0,0-1,1h1.9A4.74,4.74,0,0,0,9.82,4.54Z"/><path class="cls-1" d="M9.82,7.66a4.74,4.74,0,0,0,1-1H8.87A4.74,4.74,0,0,0,9.82,7.66Z"/><path class="cls-1" d="M4,12.12H15.62V0H4Zm3.49-6a3.17,3.17,0,0,1,1.4-2.3,3.17,3.17,0,0,1-1.4-2.3H8.67c0,.52.54,1,1.15,1.56C10.43,2.54,11,2,11,1.5h1.15a3.17,3.17,0,0,1-1.4,2.3,3.17,3.17,0,0,1,1.4,2.3,3.17,3.17,0,0,1-1.4,2.3,3.17,3.17,0,0,1,1.4,2.3H11c0-.52-.54-1-1.15-1.56-.61.51-1.15,1-1.15,1.56H7.52a3.17,3.17,0,0,1,1.4-2.3A3.17,3.17,0,0,1,7.52,6.1Z"/></g></g></svg>