<?xml version="1.0" standalone="no"?>
<!DOCTYPE svg PUBLIC "-//W3C//DTD SVG 20010904//EN"
 "http://www.w3.org/TR/2001/REC-SVG-20010904/DTD/svg10.dtd">
<svg version="1.0" xmlns="http://www.w3.org/2000/svg"
 width="512.000000pt" height="512.000000pt" viewBox="0 0 512.000000 512.000000"
 preserveAspectRatio="xMidYMid meet">

<g transform="translate(0.000000,512.000000) scale(0.100000,-0.100000)"
fill="#ffffff" stroke="none">
<path d="M3226 5104 c-95 -17 -230 -61 -333 -109 -190 -88 -158 -58 -1476
-1374 -676 -674 -1253 -1256 -1283 -1292 -158 -192 -176 -454 -46 -656 17 -26
377 -393 799 -814 585 -583 780 -772 820 -792 67 -36 191 -67 262 -67 85 0
183 25 264 66 68 35 149 115 1343 1308 1093 1092 1279 1283 1328 1357 100 153
171 331 201 506 12 70 15 205 15 738 0 617 -1 656 -20 729 -25 101 -69 176
-144 252 -76 75 -151 119 -252 144 -73 19 -110 20 -738 19 -526 -1 -677 -4
-740 -15z m1026 -810 c14 -8 36 -30 48 -49 18 -29 22 -47 18 -91 -4 -47 -10
-61 -42 -92 -34 -35 -40 -37 -99 -37 -68 0 -102 17 -132 68 -31 52 -16 149 29
186 46 38 119 44 178 15z m-820 -162 c15 -15 30 -42 34 -60 6 -32 1 -38 -162
-203 l-169 -169 113 -113 112 -112 93 93 c103 103 124 110 176 66 23 -19 31
-34 31 -57 0 -26 -15 -47 -92 -124 l-93 -93 115 -115 114 -115 171 170 c94 94
177 170 184 170 22 0 69 -29 90 -56 42 -54 37 -62 -191 -292 -207 -207 -248
-242 -285 -242 -19 0 -770 743 -782 775 -5 11 -4 31 1 46 5 14 109 126 233
248 209 209 225 223 252 217 15 -4 40 -19 55 -34z m-612 -1217 l335 -335 145
145 c163 164 174 169 234 111 28 -25 36 -41 36 -67 0 -31 -18 -52 -192 -226
-106 -105 -204 -196 -216 -203 -13 -6 -34 -9 -45 -6 -12 3 -192 176 -401 384
-407 409 -402 402 -359 460 26 35 81 72 107 72 13 0 132 -111 356 -335z m-320
-366 c261 -138 483 -258 493 -267 37 -33 4 -135 -55 -170 -27 -16 -30 -16 -90
18 -35 19 -84 46 -110 60 l-48 25 -130 -130 -130 -130 55 -99 c56 -101 63
-123 45 -156 -30 -56 -146 -81 -174 -37 -57 88 -506 957 -506 977 0 43 52 114
101 138 24 12 51 22 59 22 9 0 229 -113 490 -251z m-873 -298 c27 -40 30 -92
6 -114 -10 -8 -45 -26 -78 -38 -43 -16 -76 -38 -117 -79 -85 -86 -100 -161
-41 -216 40 -37 101 -33 241 19 200 75 276 84 379 45 82 -30 181 -130 212
-213 45 -119 16 -243 -85 -362 -48 -56 -152 -129 -224 -157 -62 -25 -149 -26
-184 -3 -57 38 -70 132 -23 161 12 8 45 16 74 19 84 9 131 28 180 71 101 89
108 197 17 257 -50 33 -115 25 -276 -33 -128 -46 -152 -51 -228 -52 -74 -1
-92 3 -135 26 -62 32 -130 104 -157 165 -30 67 -23 178 16 258 37 76 178 218
256 258 78 39 135 35 167 -12z"/>
<path d="M2100 2544 c0 -7 231 -418 241 -429 6 -6 45 26 106 87 54 54 95 99
93 101 -14 11 -440 245 -440 241z"/>
</g>
</svg>
