<svg xmlns="http://www.w3.org/2000/svg" viewBox="0 0 18 18"><defs><style>.cls-1{fill:#fff;}</style></defs><title>menuRecurso 10</title><g id="Capa_2" data-name="Capa 2"><g id="Capa_1-2" data-name="Capa 1"><path class="cls-1" d="M14.45,9.57a5.22,5.22,0,0,1-1.4,2V12.9a2.64,2.64,0,0,1-2.64,2.64H7.59A2.64,2.64,0,0,1,5,12.9V11.59a5.22,5.22,0,0,1-1.4-2,4.74,4.74,0,0,0,3.36,7.18H7a2.31,2.31,0,0,1,1.59,1,.53.53,0,0,0,.88,0,2.31,2.31,0,0,1,1.59-1h0a4.74,4.74,0,0,0,3.36-7.18Z"/><path class="cls-1" d="M10.41,11.32H7.59a1.58,1.58,0,0,0,0,3.16h2.81a1.58,1.58,0,0,0,0-3.16ZM7.95,13.43a.53.53,0,1,1,.53-.53A.53.53,0,0,1,7.95,13.43Zm2.11,0a.53.53,0,1,1,.53-.53A.53.53,0,0,1,10.06,13.43Z"/><path class="cls-1" d="M18,5.27a.53.53,0,0,0-.53-.53H14.8V7.38h1.09A2.11,2.11,0,0,0,18,5.27Z"/><path class="cls-1" d="M0,5.27a.53.53,0,0,1,.53-.53H3.2V7.38H2.11A2.11,2.11,0,0,1,0,5.27Z"/><path class="cls-1" d="M11.46,2.11H10.41A1.93,1.93,0,0,0,9,2.72a1.93,1.93,0,0,0-1.41-.61H6.54A2.29,2.29,0,0,0,4.25,4.4V7.69a4.17,4.17,0,0,0,1.58,3.25,2.63,2.63,0,0,1,1.76-.68h.88V8.68a.53.53,0,0,1,1.05,0v1.58h.88a2.63,2.63,0,0,1,1.76.68,4.17,4.17,0,0,0,1.58-3.25V4.4A2.29,2.29,0,0,0,11.46,2.11Z"/><path class="cls-1" d="M17.05,2.76A2.73,2.73,0,0,0,16.91.24v0A.44.44,0,0,0,16.45,0a.44.44,0,0,0-.36.33,1.84,1.84,0,0,1-1.8,1.41H13.5a3.35,3.35,0,0,1,1.22,1.94h1.64a2.72,2.72,0,0,0,.69-.93Z"/><path class="cls-1" d="M4.5,1.75H3.71A1.84,1.84,0,0,1,1.91.34.44.44,0,0,0,1.55,0a.44.44,0,0,0-.44.21v0a2.72,2.72,0,0,0,.54,3.45H3.27A3.35,3.35,0,0,1,4.5,1.75Z"/></g></g></svg>