<?xml version="1.0" standalone="no"?>
<!DOCTYPE svg PUBLIC "-//W3C//DTD SVG 20010904//EN"
 "http://www.w3.org/TR/2001/REC-SVG-20010904/DTD/svg10.dtd">
<svg version="1.0" xmlns="http://www.w3.org/2000/svg"
 width="512.000000pt" height="512.000000pt" viewBox="0 0 512.000000 512.000000"
 preserveAspectRatio="xMidYMid meet">
<metadata>
Created by potrace 1.16, written by Peter Selinger 2001-2019
</metadata>
<g transform="translate(0.000000,512.000000) scale(0.100000,-0.100000)"
fill="#ffffff" stroke="none">
<path d="M84 5110 c-11 -4 -34 -24 -52 -44 l-32 -37 0 -1894 0 -1895 468 0
c364 0 478 -3 518 -14 157 -42 280 -169 313 -324 7 -35 11 -201 11 -477 l0
-425 1850 0 c2033 0 1879 -5 1934 60 l26 32 0 2468 0 2468 -26 32 c-55 65 159
60 -2536 59 -1349 0 -2462 -4 -2474 -9z m846 -699 c15 -11 78 -118 160 -274
l135 -256 5 253 c4 193 8 257 19 269 34 41 137 42 182 1 18 -16 19 -40 19
-486 l0 -469 -25 -24 c-20 -21 -34 -25 -84 -25 -52 0 -65 4 -90 28 -17 15 -89
135 -161 267 -73 132 -136 244 -141 249 -5 6 -9 -89 -9 -242 l0 -253 -25 -24
c-45 -46 -174 -27 -189 27 -3 13 -6 223 -6 468 0 338 3 451 13 470 25 49 140
62 197 21z m1352 9 c14 -11 28 -33 31 -49 8 -39 -10 -98 -33 -111 -11 -6 -103
-10 -219 -10 l-201 0 0 -125 0 -125 116 0 c63 0 124 -4 134 -10 23 -12 43 -70
34 -96 -18 -50 -30 -54 -161 -54 l-123 0 0 -130 0 -130 201 0 c117 0 208 -4
219 -10 11 -6 24 -29 30 -51 9 -34 8 -46 -7 -77 l-18 -37 -291 -3 c-282 -2
-292 -2 -317 19 l-27 20 0 473 c0 362 3 476 13 489 22 30 67 35 333 36 246 1
263 0 286 -19z m296 -4 c10 -10 232 -733 232 -755 0 -3 4 -1 9 5 4 5 32 115
62 244 47 207 57 238 82 264 25 26 33 28 83 24 36 -3 62 -11 74 -24 13 -13 37
-95 76 -266 32 -137 60 -248 63 -248 4 0 46 136 95 303 145 490 132 454 165
465 50 18 135 -13 164 -59 7 -10 -32 -142 -132 -449 -77 -239 -148 -449 -157
-467 -37 -72 -208 -86 -261 -21 -7 8 -29 91 -49 184 -20 93 -39 173 -43 177
-4 4 -25 -70 -46 -165 -21 -95 -43 -180 -48 -189 -41 -66 -219 -64 -260 3 -28
44 -299 899 -293 923 14 57 142 92 184 51z m1772 -3 c25 -11 54 -30 64 -42 38
-42 15 -128 -39 -153 -20 -9 -35 -6 -86 17 -54 24 -71 27 -144 23 -72 -3 -87
-6 -109 -27 -32 -31 -35 -82 -6 -111 11 -11 81 -50 154 -85 159 -78 222 -132
255 -220 42 -112 22 -237 -51 -320 -78 -89 -212 -129 -355 -107 -147 23 -263
101 -263 176 0 41 37 98 73 110 23 8 35 4 94 -37 82 -57 155 -76 220 -58 56
15 83 39 89 81 10 63 -23 95 -175 172 -73 37 -152 83 -176 103 -116 94 -134
281 -39 394 32 39 103 81 163 98 73 20 274 12 331 -14z m91 -1385 c51 -29 84
-93 74 -146 -8 -45 -69 -106 -115 -116 -18 -3 -854 -6 -1858 -6 -1810 0 -1826
0 -1866 20 -53 26 -78 62 -84 119 -5 56 25 107 78 133 33 17 144 18 1884 18
l1848 0 39 -22z m-2031 -587 c106 -56 106 -200 0 -253 -32 -17 -95 -18 -868
-18 -819 0 -833 0 -873 20 -105 54 -105 193 1 248 l44 22 831 0 c789 0 832 -1
865 -19z m2040 -4 c80 -42 80 -43 80 -438 0 -342 0 -346 -22 -379 -13 -18 -36
-43 -51 -54 -28 -21 -36 -21 -699 -24 -663 -3 -671 -2 -714 18 -24 12 -52 36
-64 54 -19 32 -20 49 -20 388 0 352 0 355 23 388 12 18 38 41 57 51 33 18 72
19 701 19 l666 0 43 -23z m-2032 -592 c95 -57 95 -187 0 -245 -32 -19 -52 -20
-878 -20 -826 0 -846 1 -878 20 -64 39 -89 118 -58 178 19 37 58 71 92 82 16
5 403 8 859 7 811 -2 831 -2 863 -22z m2036 -628 c99 -56 100 -185 1 -242
l-42 -25 -669 0 c-746 0 -713 -3 -761 69 -46 69 -19 165 57 203 32 17 87 18
705 18 l670 0 39 -23z"/>
<path d="M3230 2000 l0 -170 505 0 505 0 0 170 0 170 -505 0 -505 0 0 -170z"/>
<path d="M0 866 c0 -75 3 -88 25 -114 37 -44 763 -725 788 -739 13 -7 61 -12
115 -13 l92 0 0 428 c0 411 -1 428 -20 460 -38 62 -42 62 -545 62 l-455 0 0
-84z"/>
</g>
</svg>
