<?xml version="1.0" standalone="no"?>
<!DOCTYPE svg PUBLIC "-//W3C//DTD SVG 20010904//EN"
 "http://www.w3.org/TR/2001/REC-SVG-20010904/DTD/svg10.dtd">
<svg version="1.0" xmlns="http://www.w3.org/2000/svg"
 width="512.000000pt" height="512.000000pt" viewBox="0 0 512.000000 512.000000"
 preserveAspectRatio="xMidYMid meet">
<metadata>
Created by potrace 1.16, written by Peter Selinger 2001-2019
</metadata>
<g transform="translate(0.000000,512.000000) scale(0.100000,-0.100000)"
fill="#ffffff" stroke="none">
<path d="M855 4861 c-22 -10 -54 -34 -72 -52 -68 -72 -63 64 -63 -1762 0
-1590 1 -1655 18 -1670 25 -22 85 -22 104 1 38 46 38 27 38 1547 l0 1475 1360
0 1360 0 0 -688 0 -687 80 0 80 0 0 840 c0 797 -1 842 -19 880 -10 22 -34 54
-52 72 -71 67 31 63 -1451 63 -1287 0 -1345 -1 -1383 -19z m2105 -221 l0 -80
-560 0 -560 0 0 80 0 80 560 0 560 0 0 -80z m-1310 50 c11 -11 20 -33 20 -50
0 -17 -9 -39 -20 -50 -11 -11 -33 -20 -50 -20 -17 0 -39 9 -50 20 -11 11 -20
33 -20 50 0 17 9 39 20 50 11 11 33 20 50 20 17 0 39 -9 50 -20z"/>
<path d="M1041 3083 l1 -1158 28 107 c45 166 78 216 173 258 126 56 288 -7
343 -134 12 -28 13 -19 14 107 l0 137 160 0 160 0 0 -160 0 -160 -156 0 -156
0 7 -112 c4 -62 9 -116 12 -120 2 -5 186 -8 409 -8 380 0 407 1 442 19 57 29
153 51 226 52 36 1 66 4 66 8 0 3 -35 41 -78 84 l-77 77 -188 0 -187 0 0 188
0 187 -93 93 -92 92 -428 0 -427 0 0 80 0 80 368 0 367 0 0 80 0 80 -367 0
-368 0 0 560 0 560 560 0 560 0 0 -508 0 -507 250 -250 c148 -148 253 -245
258 -240 4 6 20 26 35 46 29 41 116 89 159 89 23 0 28 4 28 25 0 33 24 91 56
132 61 80 193 107 287 59 l47 -23 0 668 0 669 -1200 0 -1200 0 1 -1157z m2239
917 l0 -80 -400 0 -400 0 0 80 0 80 400 0 400 0 0 -80z m-320 -320 l0 -80
-240 0 -240 0 0 80 0 80 240 0 240 0 0 -80z m320 0 l0 -80 -80 0 -80 0 0 80 0
80 80 0 80 0 0 -80z m0 -320 l0 -80 -400 0 -400 0 0 80 0 80 400 0 400 0 0
-80z m0 -320 l0 -80 -400 0 -400 0 0 80 0 80 400 0 400 0 0 -80z"/>
<path d="M1360 3520 l0 -400 400 0 400 0 0 400 0 400 -80 0 -80 0 0 -160 0
-160 -240 0 -240 0 0 160 0 160 -80 0 -80 0 0 -400z"/>
<path d="M1680 3840 l0 -80 80 0 80 0 0 80 0 80 -80 0 -80 0 0 -80z"/>
<path d="M2105 2935 c-19 -18 -25 -35 -25 -67 l0 -43 585 -585 585 -585 -53
-53 -53 -52 -49 51 c-107 110 -219 159 -364 159 -110 0 -195 -24 -271 -78 -50
-34 -55 -41 -58 -79 -4 -58 19 -80 95 -87 217 -21 335 -73 513 -222 202 -170
229 -182 518 -225 l206 -30 410 410 409 409 -58 144 c-32 79 -73 166 -91 193
-18 28 -176 193 -351 368 -318 317 -319 317 -361 317 -59 0 -92 -33 -92 -91 0
-40 5 -47 105 -148 l105 -107 -52 -52 -53 -52 -185 185 c-183 182 -187 185
-229 185 -58 0 -91 -33 -91 -91 0 -42 3 -46 185 -229 l185 -185 -52 -53 -53
-52 -185 185 c-183 182 -187 185 -229 185 -58 0 -91 -33 -91 -91 0 -42 3 -46
185 -229 l185 -185 -52 -53 -53 -52 -505 505 -505 505 -43 0 c-32 0 -49 -6
-67 -25z"/>
<path d="M464 2448 c-158 -162 -214 -288 -221 -493 -4 -113 0 -147 67 -545 39
-234 79 -456 90 -494 11 -38 45 -134 76 -212 l58 -144 428 0 429 0 20 48 c73
167 109 344 109 534 0 116 -52 858 -65 935 -8 48 -56 83 -112 83 -70 0 -93
-30 -127 -165 -50 -203 -88 -329 -137 -455 -100 -255 -153 -320 -268 -328 -32
-2 -75 1 -96 8 -51 17 -104 66 -129 120 -20 44 -21 64 -26 623 l-5 578 -91
-93z"/>
<path d="M4262 1357 l-382 -382 491 -295 c271 -162 496 -296 500 -298 5 -2 9
258 9 591 l0 595 -115 86 c-63 47 -116 86 -117 86 -2 0 -175 -172 -386 -383z"/>
<path d="M1640 1663 c0 -9 7 -105 16 -213 16 -191 15 -496 -1 -547 l-7 -23
1048 0 c576 0 1045 2 1043 4 -2 2 -99 18 -216 35 -316 45 -372 69 -587 246
-158 130 -209 158 -348 189 l-28 6 0 -120 0 -120 -320 0 -320 0 0 160 0 160
190 0 c105 0 190 2 190 4 0 2 -12 24 -26 50 -23 41 -26 56 -22 116 l4 70 -308
0 c-284 0 -308 -1 -308 -17z"/>
<path d="M560 320 l0 -80 400 0 400 0 0 80 0 80 -400 0 -400 0 0 -80z"/>
</g>
</svg>
