<?xml version="1.0" standalone="no"?>
<!DOCTYPE svg PUBLIC "-//W3C//DTD SVG 20010904//EN"
 "http://www.w3.org/TR/2001/REC-SVG-20010904/DTD/svg10.dtd">
<svg version="1.0" xmlns="http://www.w3.org/2000/svg"
 width="512.000000pt" height="512.000000pt" viewBox="0 0 512.000000 512.000000"
 preserveAspectRatio="xMidYMid meet">
<metadata>
Created by potrace 1.16, written by Peter Selinger 2001-2019
</metadata>
<g transform="translate(0.000000,512.000000) scale(0.100000,-0.100000)"
fill="#ffffff" stroke="none">
<path d="M301 5100 c-119 -43 -207 -123 -264 -239 l-32 -66 0 -2235 0 -2235
32 -66 c58 -119 148 -198 269 -239 58 -20 87 -20 2274 -18 l2215 3 70 34 c92
45 171 124 216 216 l34 70 0 2235 0 2235 -34 70 c-45 92 -124 171 -216 216
l-70 34 -2220 2 c-2171 2 -2221 2 -2274 -17z m2543 -621 c475 -45 915 -204
1324 -479 151 -101 176 -132 170 -207 -4 -50 -14 -64 -417 -599 -227 -302
-425 -557 -439 -566 -16 -11 -46 -18 -74 -18 -39 0 -57 7 -110 43 -153 105
-307 171 -479 208 -147 31 -371 31 -518 0 -173 -37 -304 -93 -470 -202 -61
-41 -81 -49 -120 -49 -27 0 -57 7 -73 18 -14 9 -212 264 -439 566 -404 537
-413 549 -416 600 -6 71 16 100 130 180 569 397 1237 572 1931 505z"/>
<path d="M2226 4184 c-197 -25 -418 -82 -611 -157 -188 -72 -491 -238 -481
-263 5 -13 604 -814 609 -814 2 0 55 26 118 58 156 80 325 132 501 157 l46 6
4 247 c3 274 6 288 70 334 67 47 164 21 206 -55 15 -27 17 -68 20 -279 l4
-247 46 -6 c179 -25 328 -71 492 -153 63 -31 118 -58 122 -60 7 -3 604 787
614 812 6 16 -119 93 -273 170 -265 132 -536 214 -833 251 -155 19 -502 18
-654 -1z"/>
</g>
</svg>
