<?xml version="1.0" standalone="no"?>
<!DOCTYPE svg PUBLIC "-//W3C//DTD SVG 20010904//EN"
 "http://www.w3.org/TR/2001/REC-SVG-20010904/DTD/svg10.dtd">
<svg version="1.0" xmlns="http://www.w3.org/2000/svg"
 width="512.000000pt" height="512.000000pt" viewBox="0 0 512.000000 512.000000"
 preserveAspectRatio="xMidYMid meet">

<g transform="translate(0.000000,512.000000) scale(0.100000,-0.100000)"
fill="#ffffff" stroke="none">
<path d="M2510 5094 c-102 -12 -217 -32 -470 -79 -148 -28 -319 -14 -470 39
l-75 26 -17 -23 c-42 -55 -131 -321 -151 -449 l-6 -38 616 0 615 0 59 55 c33
29 89 69 127 87 64 32 72 33 187 33 113 0 124 -2 185 -31 36 -17 93 -56 127
-87 l61 -57 236 0 236 0 -21 53 c-35 90 -100 188 -169 258 -111 110 -292 189
-505 218 -105 15 -425 12 -565 -5z"/>
<path d="M2850 4561 c-126 -41 -211 -168 -197 -293 18 -146 166 -264 305 -243
269 40 329 394 88 517 -44 23 -153 33 -196 19z"/>
<path d="M1190 4300 l0 -90 643 0 642 0 0 90 0 90 -642 0 -643 0 0 -90z"/>
<path d="M3380 4300 l0 -90 275 0 275 0 0 90 0 90 -275 0 -275 0 0 -90z"/>
<path d="M1314 4003 c3 -10 8 -39 11 -64 13 -89 42 -93 61 -8 21 87 20 89 -32
89 -38 0 -45 -3 -40 -17z"/>
<path d="M1572 3923 c-18 -89 -19 -114 -11 -266 44 -866 321 -1404 786 -1529
110 -29 316 -29 424 0 303 81 521 325 653 731 76 232 120 494 135 799 8 149 7
177 -12 265 l-20 97 -118 0 -118 0 -48 -47 c-176 -175 -456 -175 -633 -1 l-49
48 -484 0 -484 0 -21 -97z"/>
<path d="M3720 4003 c1 -10 7 -43 14 -73 10 -44 17 -56 37 -61 43 -12 47 -10
53 39 4 26 10 62 13 80 l5 32 -61 0 c-52 0 -61 -3 -61 -17z"/>
<path d="M1343 3675 c-11 -8 -30 -38 -43 -67 -20 -48 -22 -63 -17 -163 7 -143
27 -208 82 -262 43 -43 65 -54 65 -30 0 6 -9 73 -20 147 -11 74 -23 190 -26
258 -4 67 -10 125 -14 127 -4 2 -16 -2 -27 -10z"/>
<path d="M3746 3678 c-3 -7 -7 -66 -11 -130 -3 -64 -15 -177 -25 -250 -11 -73
-20 -139 -20 -145 0 -24 22 -13 65 30 55 54 75 119 82 263 5 104 4 115 -20
167 -26 56 -63 91 -71 65z"/>
<path d="M2157 1919 c-21 -88 -81 -219 -138 -299 -25 -36 -39 -64 -33 -69 5
-5 136 -103 292 -220 l282 -211 283 211 c155 117 286 215 291 220 6 5 -8 33
-33 69 -57 80 -117 211 -138 299 -13 57 -20 70 -33 65 -8 -3 -58 -17 -110 -32
-84 -22 -114 -25 -260 -25 -146 0 -176 3 -260 25 -52 15 -102 29 -110 32 -13
5 -20 -8 -33 -65z"/>
<path d="M1420 1373 c-212 -45 -411 -92 -443 -104 -124 -46 -247 -149 -316
-263 -65 -109 -78 -164 -131 -559 -27 -205 -52 -389 -56 -409 l-6 -38 1001 0
1001 0 0 480 0 480 -322 241 c-178 133 -327 245 -333 249 -5 3 -183 -31 -395
-77z m-105 -377 c38 -16 55 -42 55 -83 0 -61 -65 -106 -120 -83 -78 32 -82
133 -7 165 40 18 32 17 72 1z m396 -22 c52 -55 10 -148 -66 -148 -49 0 -87 38
-87 89 0 83 96 120 153 59z m-549 -184 c26 -27 30 -36 25 -68 -11 -65 -75
-100 -130 -70 -34 18 -46 39 -47 81 0 83 91 117 152 57z m732 -1 c35 -41 34
-83 -3 -120 -37 -37 -79 -38 -120 -3 -25 21 -31 33 -31 65 0 86 100 123 154
58z m-351 -75 c134 -46 222 -211 188 -351 -19 -75 -52 -117 -118 -149 -50 -25
-69 -28 -148 -28 -72 0 -101 5 -143 23 -94 42 -132 107 -132 226 1 131 76 237
197 281 51 18 100 17 156 -2z"/>
<path d="M1410 520 c-19 -20 -31 -47 -36 -76 -9 -63 3 -74 85 -74 88 0 95 6
89 71 -5 43 -11 58 -37 81 -40 36 -66 35 -101 -2z"/>
<path d="M2981 1209 l-331 -249 0 -480 0 -480 1001 0 1001 0 -6 38 c-4 20 -29
204 -56 409 -53 395 -66 450 -131 559 -68 113 -194 218 -314 263 -30 11 -213
54 -407 96 -194 42 -369 80 -389 84 -36 8 -41 4 -368 -240z m743 -330 c24 -29
26 -37 26 -135 l0 -104 106 0 c103 0 106 -1 135 -29 38 -38 40 -91 4 -126 -23
-24 -31 -25 -135 -25 l-110 0 0 -100 c0 -114 -12 -150 -58 -169 -36 -15 -73
-6 -101 23 -17 19 -21 37 -23 131 l-3 110 -113 5 c-111 5 -115 6 -139 34 -32
37 -26 90 12 124 24 20 36 22 136 22 l109 0 0 110 c0 104 1 112 25 135 37 38
95 35 129 -6z"/>
</g>
</svg>
