<?xml version="1.0" standalone="no"?>
<!DOCTYPE svg PUBLIC "-//W3C//DTD SVG 20010904//EN"
 "http://www.w3.org/TR/2001/REC-SVG-20010904/DTD/svg10.dtd">
<svg version="1.0" xmlns="http://www.w3.org/2000/svg"
 width="512.000000pt" height="512.000000pt" viewBox="0 0 512.000000 512.000000"
 preserveAspectRatio="xMidYMid meet">
<metadata>
Created by potrace 1.16, written by Peter Selinger 2001-2019
</metadata>
<g transform="translate(0.000000,512.000000) scale(0.100000,-0.100000)"
fill="#ffffff" stroke="none">
<path d="M3752 5050 c-28 -12 -252 -229 -252 -244 0 -6 307 -318 683 -694
l682 -682 117 117 c63 65 121 128 127 140 6 12 11 48 11 80 l0 58 -614 614
-614 615 -59 3 c-32 1 -68 -2 -81 -7z"/>
<path d="M1245 4939 c-31 -17 -1214 -1201 -1231 -1231 -18 -35 -18 -111 0
-146 8 -15 77 -89 153 -164 l138 -138 693 693 692 692 -142 142 c-79 77 -153
146 -165 152 -28 14 -112 14 -138 0z"/>
<path d="M2985 4563 l-240 -74 -402 -401 c-468 -468 -458 -454 -458 -613 0
-89 3 -106 28 -157 36 -74 119 -150 195 -178 46 -18 73 -21 142 -18 147 6 159
14 494 347 163 162 300 290 311 291 11 1 29 2 40 1 12 -1 287 -268 702 -683
375 -375 684 -680 686 -678 2 3 52 180 111 395 l106 390 -727 727 c-401 401
-732 728 -738 727 -5 -1 -118 -35 -250 -76z"/>
<path d="M1164 3708 l-731 -733 -17 -259 c-10 -142 -15 -260 -13 -262 2 -2 24
5 49 16 75 33 158 50 246 50 143 0 265 -44 377 -136 l56 -45 72 29 c172 72
326 67 495 -14 105 -50 214 -159 266 -264 34 -71 65 -184 66 -241 0 -21 11
-34 50 -59 182 -117 294 -361 260 -568 l-12 -75 60 -61 c78 -79 117 -142 148
-241 35 -112 35 -238 0 -350 -14 -44 -32 -89 -40 -100 -9 -11 -16 -27 -16 -36
0 -9 56 -70 123 -136 104 -101 133 -124 183 -143 79 -29 197 -26 266 8 137 67
213 228 174 372 -8 30 -13 56 -12 58 2 1 23 -7 47 -18 61 -27 179 -27 253 1
63 23 134 86 164 146 42 82 48 216 12 283 -5 10 -10 20 -10 23 0 2 28 -10 61
-27 116 -57 262 -37 358 50 93 83 133 222 98 335 l-14 47 50 -27 c45 -23 63
-26 147 -26 84 0 101 3 146 27 68 36 138 115 160 181 22 66 22 158 -1 228 -16
51 -56 93 -816 854 l-798 799 -228 -225 c-213 -211 -233 -229 -313 -267 -123
-60 -193 -75 -320 -69 -122 5 -204 29 -300 84 -79 46 -183 149 -228 225 -82
139 -111 312 -77 463 39 177 75 227 392 546 l264 266 -98 7 c-54 4 -136 9
-183 12 l-85 6 -731 -734z"/>
<path d="M564 2201 c-80 -41 -324 -285 -356 -358 -30 -66 -30 -180 -1 -244 28
-63 81 -120 140 -149 41 -21 62 -25 143 -25 71 0 103 5 127 18 l32 17 -19 -42
c-25 -55 -26 -166 -3 -234 23 -69 102 -145 173 -169 71 -24 165 -22 223 3 l44
20 -18 -49 c-29 -76 -26 -170 9 -244 74 -155 245 -212 416 -140 18 8 18 7 0
-26 -29 -52 -27 -200 4 -256 35 -66 79 -110 140 -140 48 -24 69 -28 137 -27
117 0 149 20 331 206 169 171 184 198 184 317 0 109 -64 217 -153 260 -88 43
-172 47 -262 15 -11 -4 19 34 67 83 102 105 129 156 131 247 4 122 -52 223
-153 280 -49 27 -64 31 -135 31 -44 0 -93 -4 -108 -8 -28 -8 -28 -8 12 44 124
156 77 381 -97 466 -48 24 -70 28 -137 28 -115 0 -151 -20 -318 -184 -112
-110 -137 -130 -130 -106 4 17 8 64 8 105 0 88 -23 145 -83 204 -59 60 -105
79 -202 84 -79 3 -89 1 -146 -27z"/>
</g>
</svg>
