<svg xmlns="http://www.w3.org/2000/svg" viewBox="0 0 21.01 21.01"><defs><style>.cls-1{fill:#fff;}</style></defs><title>menuRecurso 11</title><g id="Capa_2" data-name="Capa 2"><g id="Capa_1-2" data-name="Capa 1"><path class="cls-1" d="M7,11.55c-.67-.67-1.68-.22-2.41.5a3.11,3.11,0,0,0-.39,3.88L7,13.11A1.08,1.08,0,0,0,7,11.55Z"/><path class="cls-1" d="M7.9,14,5.07,16.81a3.11,3.11,0,0,0,3.88-.39c.72-.73,1.2-1.71.5-2.41A1.08,1.08,0,0,0,7.9,14Z"/><path class="cls-1" d="M10.33,13.14c.94.94,1,2.6-.52,4.14a4.28,4.28,0,0,1-6.08,0,4.29,4.29,0,0,1,0-6.08c1.6-1.61,3.24-1.42,4.15-.5a2.43,2.43,0,0,1,.59,1L11.1,9A6.78,6.78,0,1,0,12,9.9L9.33,12.55a2.25,2.25,0,0,1,1,.59Z"/><path class="cls-1" d="M15.23,8.3,12.7,5.77A3.48,3.48,0,0,0,12,8.12L11.1,9A7.12,7.12,0,0,1,12,9.9L12.88,9a3.49,3.49,0,0,0,2.35-.69Z"/><path class="cls-1" d="M17.17.87l1.05,1.05-.87.87-.87-.87L13.53,4.86l2.62,2.62,2.95-2.95-.87-.87.87-.87,1.05,1.05L21,3,18,0Z"/></g></g></svg>