<svg xmlns="http://www.w3.org/2000/svg" viewBox="0 0 18 23.63"><defs><style>.cls-1{fill:#fff;}</style></defs><title>menuRecurso 7</title><g id="Capa_2" data-name="Capa 2"><g id="Capa_1-2" data-name="Capa 1"><path class="cls-1" d="M6.83,17.15,9,20.62l2.17-3.47a6.23,6.23,0,0,1-4.33,0Z"/><path class="cls-1" d="M5.44,17.54H3.92A3.92,3.92,0,0,0,0,21.46v1.48a.69.69,0,0,0,.69.69H8.31V22.12Zm-.6,3.92H3.46a.69.69,0,1,1,0-1.38H4.85a.69.69,0,1,1,0,1.38Z"/><path class="cls-1" d="M12.69,2.52a3.69,3.69,0,0,1-7.37,0A2.08,2.08,0,0,0,4.15,4.38V6.92h9.69V4.38A2.08,2.08,0,0,0,12.69,2.52Z"/><path class="cls-1" d="M9,0a2.31,2.31,0,1,0,2.31,2.31A2.31,2.31,0,0,0,9,0ZM9,3a.69.69,0,1,1,.69-.69A.69.69,0,0,1,9,3Z"/><path class="cls-1" d="M13.15,8.31h-9v3a4.85,4.85,0,0,0,9.69,0v-3ZM10.41,13a2,2,0,0,1-2.83,0,.69.69,0,0,1,1-1,.61.61,0,0,0,.87,0,.69.69,0,1,1,1,1Z"/><circle class="cls-1" cx="13.34" cy="21.55" r="0.69"/><path class="cls-1" d="M14.08,17.54h0V19.6a2.08,2.08,0,0,1-.69,4h4a.69.69,0,0,0,.69-.69V21.46A3.92,3.92,0,0,0,14.08,17.54Z"/><path class="cls-1" d="M11.26,21.55a2.08,2.08,0,0,1,1.38-2V17.54h-.09L9.69,22.12v1.51h3.65A2.08,2.08,0,0,1,11.26,21.55Z"/></g></g></svg>