<?xml version="1.0" standalone="no"?>
<!DOCTYPE svg PUBLIC "-//W3C//DTD SVG 20010904//EN"
 "http://www.w3.org/TR/2001/REC-SVG-20010904/DTD/svg10.dtd">
<svg version="1.0" xmlns="http://www.w3.org/2000/svg"
 width="512.000000pt" height="512.000000pt" viewBox="0 0 512.000000 512.000000"
 preserveAspectRatio="xMidYMid meet">

<g transform="translate(0.000000,512.000000) scale(0.100000,-0.100000)"
fill="#ffffff" stroke="none">
<path d="M2288 5099 c-23 -12 -46 -35 -58 -59 -20 -39 -20 -57 -20 -1170 0
-1114 0 -1131 20 -1170 13 -26 34 -47 60 -60 39 -20 56 -20 1170 -20 1114 0
1131 0 1170 20 26 13 47 34 60 60 20 39 20 56 20 1170 0 1114 0 1131 -20 1170
-13 26 -34 47 -60 60 -37 19 -58 20 -380 20 l-340 0 0 -315 c0 -292 -1 -319
-19 -353 -24 -45 -324 -344 -368 -366 -41 -20 -85 -20 -126 0 -44 22 -344 321
-368 366 -18 34 -19 61 -19 353 l0 315 -342 0 c-322 -1 -345 -2 -380 -21z"/>
<path d="M3310 4852 l0 -268 75 -74 75 -74 75 74 75 74 0 268 0 268 -150 0
-150 0 0 -268z"/>
<path d="M1509 2339 c-54 -4 -135 -17 -182 -28 -85 -20 -425 -137 -440 -151
-6 -5 633 -1789 648 -1808 1 -1 296 -43 656 -93 702 -97 745 -100 884 -64 84
22 179 69 1075 539 870 456 862 451 921 572 57 115 48 255 -23 366 -81 128
-246 199 -390 168 -29 -6 -219 -88 -423 -183 l-369 -173 -13 -81 c-15 -95 -36
-156 -89 -250 -44 -78 -147 -184 -227 -231 -121 -73 -283 -108 -418 -93 -144
17 -1053 183 -1081 197 -63 33 -90 119 -59 189 25 56 70 85 131 85 25 0 263
-39 530 -86 530 -95 587 -100 682 -64 80 30 159 104 200 188 30 61 33 74 33
162 0 87 -3 101 -32 161 -19 39 -52 84 -79 109 -78 71 -126 87 -459 146 -360
64 -424 84 -608 197 -154 93 -245 137 -359 171 -167 50 -337 69 -509 55z"/>
<path d="M250 2129 c-91 -34 -176 -71 -189 -83 -53 -47 -51 -16 -51 -1006 0
-903 0 -922 20 -960 13 -26 34 -47 60 -60 37 -19 58 -20 393 -20 l354 0 154
56 c171 62 196 74 223 111 47 63 54 38 -304 1024 -183 503 -341 926 -351 940
-20 28 -84 59 -122 59 -12 -1 -96 -28 -187 -61z"/>
</g>
</svg>
