<?xml version="1.0" standalone="no"?>
<!DOCTYPE svg PUBLIC "-//W3C//DTD SVG 20010904//EN"
 "http://www.w3.org/TR/2001/REC-SVG-20010904/DTD/svg10.dtd">
<svg version="1.0" xmlns="http://www.w3.org/2000/svg"
 width="128.000000pt" height="128.000000pt" viewBox="0 0 128.000000 128.000000"
 preserveAspectRatio="xMidYMid meet">
<metadata>
Created by potrace 1.16, written by Peter Selinger 2001-2019
</metadata>
<g transform="translate(0.000000,128.000000) scale(0.100000,-0.100000)"
fill="#ffffff" stroke="none">
<path d="M305 1054 c-127 -91 -232 -170 -233 -175 -6 -14 19 -41 33 -35 7 2
105 72 219 155 114 83 211 151 216 151 5 0 91 -60 192 -133 270 -195 246 -181
264 -166 8 7 14 18 12 25 -3 11 -435 330 -462 340 -6 2 -115 -70 -241 -162z"/>
<path d="M780 1152 l0 -68 135 -97 c74 -54 135 -101 135 -105 0 -5 -16 -23
-35 -42 -31 -30 -38 -33 -55 -22 -20 12 -20 9 -20 -153 l0 -165 140 0 140 0 0
300 0 300 -48 0 c-26 0 -53 5 -60 12 -7 7 -12 34 -12 60 l0 48 -160 0 -160 0
0 -68z"/>
<path d="M358 993 l-177 -128 0 -302 -1 -303 120 0 120 0 0 93 c0 50 5 109 10
129 23 82 117 115 179 62 37 -31 51 -77 51 -171 l0 -73 39 0 c35 0 45 6 82 50
30 35 54 53 81 60 l38 11 -1 222 0 222 -173 124 c-95 69 -177 126 -182 128 -5
2 -89 -54 -186 -124z m278 -8 c130 -76 125 -268 -8 -336 -162 -83 -342 97
-259 259 50 98 172 133 267 77z m-268 -337 c16 -16 16 -160 0 -176 -7 -7 -37
-12 -68 -12 -31 0 -61 5 -68 12 -16 16 -16 160 0 176 7 7 37 12 68 12 31 0 61
-5 68 -12z m480 0 c7 -7 12 -42 12 -88 0 -46 -5 -81 -12 -88 -7 -7 -37 -12
-68 -12 -31 0 -61 5 -68 12 -16 16 -16 160 0 176 7 7 37 12 68 12 31 0 61 -5
68 -12z"/>
<path d="M452 960 c-48 -30 -72 -75 -72 -140 0 -100 60 -160 160 -160 100 0
160 60 160 160 0 65 -24 110 -72 140 -45 27 -131 27 -176 0z m108 -15 c0 -8 6
-15 14 -15 16 0 31 -17 40 -47 6 -19 3 -23 -13 -23 -14 0 -21 6 -21 20 0 11
-4 20 -10 20 -5 0 -10 -15 -10 -34 0 -25 5 -35 20 -39 27 -7 42 -50 30 -83 -6
-14 -19 -28 -30 -31 -11 -3 -20 -12 -20 -19 0 -8 -9 -14 -20 -14 -11 0 -20 7
-20 15 0 8 -6 15 -14 15 -16 0 -31 17 -40 48 -6 18 -3 22 13 22 14 0 21 -6 21
-20 0 -11 5 -20 10 -20 6 0 10 15 10 34 0 25 -5 35 -20 39 -11 3 -24 17 -30
31 -12 33 3 76 30 83 11 3 20 12 20 19 0 8 9 14 20 14 11 0 20 -7 20 -15z"/>
<path d="M480 520 c-18 -18 -20 -33 -20 -140 l0 -120 30 0 30 0 0 140 c0 87
-4 140 -10 140 -5 0 -19 -9 -30 -20z"/>
<path d="M560 400 c0 -147 6 -163 43 -122 14 15 17 40 17 120 0 89 -3 105 -20
122 -11 11 -24 20 -30 20 -6 0 -10 -53 -10 -140z"/>
<path d="M977 339 c-9 -71 -17 -74 -197 -77 l-160 -3 0 -60 0 -59 45 0 c25 0
45 5 45 10 0 6 11 22 25 35 34 35 96 35 130 0 14 -13 25 -29 25 -35 0 -5 22
-10 50 -10 28 0 50 5 50 10 0 6 11 22 25 35 34 35 96 35 130 0 14 -13 25 -29
25 -35 0 -5 11 -10 25 -10 24 0 25 2 25 73 0 70 -1 73 -41 120 l-41 47 -77 0
-78 0 -6 -41z"/>
<path d="M100 200 c0 -19 7 -20 240 -20 233 0 240 1 240 20 0 19 -7 20 -240
20 -233 0 -240 -1 -240 -20z"/>
</g>
</svg>
